<?xml version="1.0" standalone="no"?>
<!DOCTYPE svg PUBLIC "-//W3C//DTD SVG 20010904//EN"
 "http://www.w3.org/TR/2001/REC-SVG-20010904/DTD/svg10.dtd">
<svg version="1.0" xmlns="http://www.w3.org/2000/svg"
 width="460.000000pt" height="460.000000pt" viewBox="0 0 460.000000 460.000000"
 preserveAspectRatio="xMidYMid meet">
<metadata>
Created by potrace 1.11, written by Peter Selinger 2001-2013
</metadata>
<g transform="translate(0.000000,460.000000) scale(0.100000,-0.100000)"
fill="#000000" stroke="none">
<path d="M2273 3737 c-13 -18 -23 -37 -23 -42 0 -4 -25 -50 -55 -100 -30 -51
-67 -114 -82 -142 -41 -73 -82 -144 -137 -236 -27 -45 -61 -104 -76 -132 -14
-27 -41 -72 -58 -100 -17 -27 -45 -78 -62 -112 -35 -71 -45 -75 -117 -42 -24
11 -79 34 -121 50 -43 17 -87 34 -99 39 -16 7 -23 5 -27 -6 -12 -31 -6 -339 9
-461 9 -69 14 -127 12 -130 -3 -2 -58 -8 -123 -13 -66 -6 -141 -14 -169 -18
-117 -21 -281 -56 -288 -62 -13 -11 14 -69 69 -152 30 -44 54 -82 54 -85 0 -6
60 -84 76 -98 6 -5 25 -31 42 -57 18 -25 37 -48 43 -50 13 -4 -47 -121 -116
-228 -23 -36 -46 -76 -50 -90 -4 -14 -12 -31 -17 -37 -8 -10 43 -13 251 -13
l262 0 20 35 c12 19 23 35 25 35 3 0 23 -9 44 -20 45 -23 216 -66 300 -75 33
-4 89 0 140 9 117 21 483 21 600 0 52 -9 107 -13 140 -9 90 10 231 45 294 73
41 18 61 23 63 15 3 -7 13 -23 24 -37 l20 -26 258 0 258 0 -26 53 c-15 28 -39
72 -55 97 -17 25 -49 82 -73 127 l-44 82 37 53 c21 29 42 58 48 63 16 15 76
92 76 98 0 3 24 41 54 85 55 83 82 141 69 152 -7 6 -171 41 -288 62 -27 4
-103 12 -169 18 -65 5 -120 11 -123 13 -2 3 3 61 12 130 15 122 21 430 9 461
-4 11 -11 13 -27 6 -12 -5 -56 -22 -99 -39 -42 -16 -97 -39 -121 -50 -72 -33
-82 -29 -117 42 -17 34 -50 94 -75 132 -24 39 -44 75 -45 81 0 7 -15 34 -33
60 -19 27 -53 84 -76 127 -23 42 -59 105 -81 139 -22 33 -40 64 -40 69 0 4
-18 36 -40 70 -22 35 -53 89 -68 119 -34 66 -55 100 -62 100 -3 0 -15 -15 -27
-33z m59 -624 c10 -9 18 -22 18 -30 0 -7 8 -21 19 -32 23 -23 92 -125 113
-166 8 -16 31 -59 51 -95 37 -66 70 -152 112 -293 70 -228 56 -438 -41 -628
-37 -72 -122 -172 -166 -195 -26 -14 -28 -13 -53 23 -14 21 -25 42 -25 48 0 5
-13 29 -29 53 l-28 43 -24 -38 c-12 -21 -33 -59 -45 -85 -14 -28 -30 -48 -39
-48 -26 0 -143 130 -172 190 -103 216 -112 398 -34 671 29 102 57 170 108 266
63 121 198 333 211 333 3 0 14 -7 24 -17z m-781 -279 c105 -37 159 -60 159
-70 0 -8 -81 -158 -95 -174 -7 -8 -30 -49 -52 -90 -58 -108 -77 -140 -84 -140
-14 0 -31 163 -36 333 -3 97 -4 177 -1 177 2 0 51 -16 109 -36z m1606 -141
c-5 -170 -22 -333 -36 -333 -6 0 -26 33 -86 145 -20 39 -43 77 -50 85 -13 16
-95 165 -95 174 0 3 10 11 23 17 24 13 226 87 241 88 5 1 6 -76 3 -176z
m-1727 -432 c0 -6 -4 -12 -8 -15 -11 -7 -102 -161 -102 -173 0 -5 -12 -25 -26
-44 -14 -19 -46 -72 -71 -119 -26 -47 -48 -87 -50 -89 -4 -6 -55 52 -95 109
-17 25 -47 63 -65 84 -18 22 -33 44 -33 50 0 6 -18 38 -40 70 -22 33 -37 62
-33 66 42 36 523 91 523 61z m1988 -6 c133 -16 270 -43 277 -55 3 -4 -13 -34
-35 -66 -22 -33 -40 -64 -40 -70 0 -6 -15 -28 -33 -50 -18 -21 -44 -55 -57
-74 -26 -39 -90 -113 -101 -118 -3 -1 -12 12 -20 30 -7 18 -34 67 -59 108 -26
41 -51 84 -57 95 -54 96 -108 187 -115 191 -4 3 -8 9 -8 15 0 13 104 11 248
-6z m-1476 -315 c33 -85 84 -167 141 -225 34 -34 70 -67 81 -72 16 -9 16 -13
5 -32 -13 -20 -19 -22 -64 -16 -49 6 -200 64 -239 90 -38 27 -156 139 -156
149 0 5 12 24 26 43 14 18 35 55 46 81 12 26 29 58 38 72 9 14 30 45 45 70
l28 44 18 -84 c9 -47 23 -101 31 -120z m874 33 c18 -35 42 -75 53 -89 12 -15
21 -34 21 -43 0 -15 -105 -120 -156 -156 -36 -25 -188 -83 -236 -90 -39 -6
-48 -4 -56 12 -9 16 -3 24 41 54 113 76 227 285 227 415 0 22 3 44 7 48 8 7
49 -57 99 -151z m-1063 -241 c96 -90 250 -172 325 -172 48 0 54 -11 31 -57
-23 -48 -46 -58 -149 -67 -102 -9 -225 8 -315 44 -112 44 -113 45 -75 116 18
32 38 66 45 74 7 8 25 39 40 68 14 28 28 52 31 52 3 0 33 -26 67 -58z m1212
-13 c22 -39 54 -97 71 -130 l32 -59 -52 -24 c-120 -57 -173 -68 -311 -68 -71
0 -142 4 -157 10 -28 12 -73 85 -63 102 3 6 19 10 35 10 76 0 230 81 327 172
34 32 65 58 70 58 4 0 26 -32 48 -71z"/>
<path d="M478 1271 c-72 -23 -141 -80 -170 -139 -20 -41 -23 -66 -26 -204 l-4
-158 70 0 70 0 4 128 c3 104 7 134 23 162 26 43 95 80 152 80 36 0 43 -3 43
-20 0 -17 -7 -20 -42 -20 -24 0 -52 -3 -63 -6 -26 -7 -63 -60 -71 -102 l-6
-32 91 0 91 0 0 -95 0 -95 75 0 75 0 0 260 0 260 -127 -1 c-95 0 -143 -5 -185
-18z"/>
<path d="M870 1030 l0 -261 73 3 72 3 3 183 2 182 78 0 c69 -1 75 -2 58 -15
-10 -8 -39 -17 -63 -21 l-44 -6 3 -66 3 -66 38 -8 c64 -13 97 -36 118 -81 10
-23 19 -57 19 -74 l0 -33 75 0 75 0 0 38 c0 51 -26 136 -56 184 l-24 38 24 38
c30 48 56 133 56 184 l0 38 -255 0 -255 0 0 -260z"/>
<path d="M1655 1270 c-70 -22 -134 -75 -164 -137 -28 -55 -42 -159 -39 -268
l3 -90 75 0 75 0 5 135 c3 80 10 144 17 157 20 34 78 64 138 70 51 5 55 4 55
-16 0 -18 -6 -21 -47 -21 -70 0 -95 -17 -115 -75 -9 -28 -14 -53 -11 -57 2 -5
42 -8 89 -8 l84 0 0 -95 0 -95 75 0 75 0 0 260 0 260 -127 -1 c-97 0 -143 -5
-188 -19z"/>
<path d="M2042 1033 l3 -258 75 0 75 0 3 183 2 182 78 0 c67 -1 75 -2 59 -14
-10 -8 -38 -17 -62 -21 l-45 -6 0 -65 c0 -48 4 -66 15 -70 24 -9 146 16 185
37 66 38 130 160 130 251 l0 38 -260 0 -260 0 2 -257z"/>
<path d="M2640 1030 l0 -260 75 0 75 0 0 260 0 260 -75 0 -75 0 0 -260z"/>
<path d="M3000 1195 l0 -95 -90 0 -90 0 0 -70 0 -70 90 0 89 0 3 -92 3 -93 75
0 75 0 3 258 2 257 -80 0 -80 0 0 -95z"/>
<path d="M3230 1156 c0 -121 3 -142 26 -206 29 -78 64 -113 151 -152 40 -18
73 -22 191 -26 l142 -5 0 76 0 75 -122 4 c-185 5 -226 31 -236 153 l-5 65 182
0 181 0 0 75 0 75 -255 0 -255 0 0 -134z"/>
<path d="M3822 1148 c6 -195 22 -245 100 -304 72 -56 144 -74 296 -74 l112 0
0 74 0 74 -122 3 c-113 4 -127 6 -170 32 -26 15 -53 37 -59 49 -6 12 -14 82
-17 155 l-5 133 -69 0 -70 0 4 -142z"/>
<path d="M3410 1078 c0 -42 33 -91 70 -104 19 -7 86 -13 148 -13 l112 -1 0 70
0 70 -165 0 c-164 0 -165 0 -165 -22z"/>
</g>
</svg>
